<svg id="SvgjsSvg1000" xmlns="http://www.w3.org/2000/svg" version="1.1" xmlns:xlink="http://www.w3.org/1999/xlink" xmlns:svgjs="http://svgjs.com/svgjs" width="10" height="12" viewBox="0 0 10 12"><title>Shape</title><desc>Created with Avocode.</desc><defs id="SvgjsDefs1001"></defs><path id="SvgjsPath1007" d="M1159.38 328.46C1159.6200000000001 328.46 1159.8200000000002 328.65 1159.8200000000002 328.89C1159.8200000000002 329.12 1159.6200000000001 329.31 1159.38 329.31H1159.3700000000001C1159.3200000000002 329.31 1159.2800000000002 329.35 1159.2800000000002 329.4L1158.9500000000003 337.72999999999996C1158.9300000000003 338.34 1158.4000000000003 338.83 1157.7700000000002 338.83H1152.0500000000002C1151.42 338.83 1150.89 338.34 1150.8700000000001 337.72999999999996L1150.5500000000002 329.4C1150.5400000000002 329.34999999999997 1150.5000000000002 329.31 1150.4500000000003 329.31C1150.2000000000003 329.31 1150.0000000000002 329.12 1150.0000000000002 328.89C1150.0000000000002 328.65 1150.2000000000003 328.46 1150.4500000000003 328.46H1152.6200000000003C1152.6700000000003 328.46 1152.7200000000003 328.41999999999996 1152.7400000000002 328.38L1152.8800000000003 327.89C1153.0300000000004 327.38 1153.5600000000004 327 1154.1100000000004 327H1155.7200000000003C1156.2600000000002 327 1156.7900000000002 327.38 1156.9400000000003 327.89L1157.0900000000004 328.38C1157.1000000000004 328.42 1157.1500000000003 328.46 1157.2000000000003 328.46ZM1154.55 330.86V336.69C1154.55 336.88 1154.71 337.03 1154.9099999999999 337.03C1155.11 337.03 1155.2699999999998 336.88 1155.2699999999998 336.69V330.86C1155.2699999999998 330.67 1155.1099999999997 330.51 1154.9099999999999 330.51C1154.7099999999998 330.51 1154.55 330.67 1154.55 330.86ZM1152.59 330.87L1152.77 336.7C1152.77 336.89 1152.94 337.03 1153.1399999999999 337.03C1153.33 337.02 1153.4899999999998 336.85999999999996 1153.4799999999998 336.67999999999995L1153.2999999999997 330.84999999999997C1153.2999999999997 330.65999999999997 1153.1299999999997 330.51 1152.9399999999998 330.51C1152.7399999999998 330.52 1152.58 330.68 1152.59 330.87ZM1156.52 330.85L1156.34 336.68C1156.33 336.86 1156.49 337.02 1156.6899999999998 337.03000000000003C1156.8799999999999 337.03000000000003 1157.0499999999997 336.89000000000004 1157.0499999999997 336.70000000000005L1157.2299999999998 330.87000000000006C1157.2399999999998 330.68000000000006 1157.0799999999997 330.52000000000004 1156.8899999999999 330.51000000000005C1156.6899999999998 330.51000000000005 1156.52 330.66 1156.52 330.85ZM1156.09 328.46C1156.1399999999999 328.46 1156.1699999999998 328.41999999999996 1156.1599999999999 328.38L1156.08 328.12C1156.04 327.99 1155.86 327.86 1155.72 327.86H1154.1100000000001C1153.96 327.86 1153.7800000000002 327.99 1153.7400000000002 328.12L1153.6600000000003 328.38C1153.6500000000003 328.42 1153.6800000000003 328.46 1153.7300000000002 328.46Z " fill="#b0bdd1" fill-opacity="1" transform="matrix(1,0,0,1,-1150,-327)"></path></svg>