<svg id="SvgjsSvg1000" xmlns="http://www.w3.org/2000/svg" version="1.1" xmlns:xlink="http://www.w3.org/1999/xlink" xmlns:svgjs="http://svgjs.com/svgjs" width="14.851398408290606" height="11.577918271286507" viewBox="0 0 14.851398408290606 11.577918271286507"><title>Group 2</title><desc>Created with Avocode.</desc><defs id="SvgjsDefs1001"><clipPath id="SvgjsClipPath1010"><path id="SvgjsPath1009" d="M1340 89V81H1351V89Z " fill="#ffffff"></path></clipPath><clipPath id="SvgjsClipPath1014"><path id="SvgjsPath1013" d="M1342.1486 87.57792V77.42208000000001H1354.8514V87.57792ZM1348.89 82.94V84.53999999999999L1353.23 81.86999999999999L1348.89 78.99999999999999V80.63999999999999C1343.63 80.63999999999999 1343 85.83999999999999 1343 85.83999999999999C1344.49 83.39999999999999 1346.04 82.93999999999998 1348.89 82.93999999999998Z " fill="#ffffff"></path></clipPath></defs><path id="SvgjsPath1007" d="M1340 89V81H1351V89Z " fill="#f8fafc" fill-opacity="1" transform="matrix(1,0,0,1,-1340,-77.4220817287135)"></path><path id="SvgjsPath1008" d="M1340 89V81H1351V89Z " fill-opacity="0" fill="#ffffff" stroke-dashoffset="0" stroke-linejoin="miter" stroke-linecap="butt" stroke-opacity="1" stroke="#b1bbcb" stroke-miterlimit="50" stroke-width="2" clip-path="url(&quot;#SvgjsClipPath1010&quot;)" transform="matrix(1,0,0,1,-1340,-77.4220817287135)"></path><path id="SvgjsPath1011" d="M1348.89 82.94V84.53999999999999L1353.23 81.86999999999999L1348.89 78.99999999999999V80.63999999999999C1343.63 80.63999999999999 1343 85.83999999999999 1343 85.83999999999999C1344.49 83.39999999999999 1346.04 82.93999999999998 1348.89 82.93999999999998Z " fill="#b1bbcb" fill-opacity="1" transform="matrix(1,0,0,1,-1340,-77.4220817287135)"></path><path id="SvgjsPath1012" d="M1348.89 82.94V84.53999999999999L1353.23 81.86999999999999L1348.89 78.99999999999999V80.63999999999999C1343.63 80.63999999999999 1343 85.83999999999999 1343 85.83999999999999C1344.49 83.39999999999999 1346.04 82.93999999999998 1348.89 82.93999999999998Z " fill-opacity="0" fill="#ffffff" stroke-dashoffset="0" stroke-linejoin="miter" stroke-linecap="butt" stroke-opacity="1" stroke="#f8fafc" stroke-miterlimit="50" stroke-width="1" clip-path="url(&quot;#SvgjsClipPath1014&quot;)" transform="matrix(1,0,0,1,-1340,-77.4220817287135)"></path></svg>