<svg id="SvgjsSvg1014" xmlns="http://www.w3.org/2000/svg" version="1.1" xmlns:xlink="http://www.w3.org/1999/xlink" xmlns:svgjs="http://svgjs.com/svgjs" width="12" height="12" viewBox="0 0 12 12"><title>Shape</title><desc>Created with Avocode.</desc><defs id="SvgjsDefs1015"></defs><path id="SvgjsPath1016" d="M439.86 79L439.58000000000004 80.5C439.32000000000005 80.58 439.06000000000006 80.69 438.82000000000005 80.82L437.56000000000006 79.94999999999999L435.95000000000005 81.57L436.82000000000005 82.82C436.69000000000005 83.05999999999999 436.58000000000004 83.32 436.50000000000006 83.58L435.00000000000006 83.86V86.14L436.50000000000006 86.42C436.58000000000004 86.68 436.69000000000005 86.94 436.82000000000005 87.18L435.95000000000005 88.43L437.56000000000006 90.05000000000001L438.82000000000005 89.18C439.06000000000006 89.31 439.32000000000005 89.42 439.58000000000004 89.5L439.86 91H442.14L442.41999999999996 89.5C442.67999999999995 89.42 442.93999999999994 89.31 443.17999999999995 89.18L444.42999999999995 90.05000000000001L446.04999999999995 88.43L445.17999999999995 87.18C445.29999999999995 86.94000000000001 445.40999999999997 86.68 445.49999999999994 86.42L446.99999999999994 86.14V83.86L445.49999999999994 83.58C445.40999999999997 83.32 445.30999999999995 83.07 445.17999999999995 82.83L446.04999999999995 81.57L444.42999999999995 79.94999999999999L443.17999999999995 80.82C442.93999999999994 80.69 442.67999999999995 80.58 442.41999999999996 80.5L442.14 79ZM443.43 85C443.43 86.34 442.34000000000003 87.43 441 87.43C439.66 87.43 438.57 86.34 438.57 85C438.57 83.66 439.65999999999997 82.57 441 82.57C442.34 82.57 443.43 83.66 443.43 85Z " fill="#00b5b8" fill-opacity="1" transform="matrix(1,0,0,1,-435,-79)"></path></svg>