<svg id="SvgjsSvg1000" xmlns="http://www.w3.org/2000/svg" version="1.1" xmlns:xlink="http://www.w3.org/1999/xlink" xmlns:svgjs="http://svgjs.com/svgjs" width="14" height="14" viewBox="0 0 14 14"><title>Shape</title><desc>Created with Avocode.</desc><defs id="SvgjsDefs1001"></defs><path id="SvgjsPath1007" d="M1078.72 357.37L1075.91 354.57C1077.6200000000001 352.21 1077.42 348.89 1075.2900000000002 346.77C1074.1100000000001 345.59 1072.5700000000002 345 1071.0300000000002 345C1069.4900000000002 345 1067.9400000000003 345.59 1066.7700000000002 346.77C1064.4100000000003 349.12 1064.4100000000003 352.94 1066.7700000000002 355.28999999999996C1067.9400000000003 356.46999999999997 1069.4900000000002 357.05999999999995 1071.0300000000002 357.05999999999995C1072.2700000000002 357.05999999999995 1073.5100000000002 356.67999999999995 1074.5700000000002 355.90999999999997L1077.3700000000001 358.71999999999997C1077.5600000000002 358.90999999999997 1077.8000000000002 358.99999999999994 1078.0500000000002 358.99999999999994C1078.2900000000002 358.99999999999994 1078.5400000000002 358.90999999999997 1078.7200000000003 358.71999999999997C1079.0900000000001 358.34999999999997 1079.0900000000001 357.74999999999994 1078.7200000000003 357.36999999999995ZM1067.71 354.35C1065.88 352.52000000000004 1065.88 349.54 1067.71 347.71000000000004C1068.6000000000001 346.82000000000005 1069.77 346.33000000000004 1071.03 346.33000000000004C1072.28 346.33000000000004 1073.46 346.82000000000005 1074.35 347.71000000000004C1076.1799999999998 349.54 1076.1799999999998 352.52000000000004 1074.35 354.35C1073.4599999999998 355.24 1072.28 355.73 1071.03 355.73C1069.77 355.73 1068.6 355.24 1067.71 354.35Z " fill="#babfc7" fill-opacity="1" transform="matrix(1,0,0,1,-1065,-345)"></path></svg>