<svg id="SvgjsSvg1011" xmlns="http://www.w3.org/2000/svg" version="1.1" xmlns:xlink="http://www.w3.org/1999/xlink" xmlns:svgjs="http://svgjs.com/svgjs" width="14" height="10" viewBox="0 0 14 10"><title>Shape</title><desc>Created with Avocode.</desc><defs id="SvgjsDefs1012"></defs><path id="SvgjsPath1013" d="M1358.98 212C1358.79 212 1358.6100000000001 212.06 1358.46 212.16L1364.51 217.53C1364.83 217.81 1365.16 217.81 1365.48 217.53L1371.54 212.16C1371.3899999999999 212.06 1371.21 212 1371.02 212ZM1364.1 218.09C1364.6299999999999 218.56 1365.36 218.56 1365.8899999999999 218.09L1371.9399999999998 212.72C1371.9799999999998 212.83 1371.9999999999998 212.95 1371.9999999999998 213.08V220.26000000000002C1371.9999999999998 220.85000000000002 1371.5599999999997 221.33 1371.0199999999998 221.33H1358.9799999999998C1358.4399999999998 221.33 1357.9999999999998 220.85000000000002 1357.9999999999998 220.26000000000002V213.08C1357.9999999999998 212.95000000000002 1358.0199999999998 212.83 1358.0599999999997 212.72Z " fill="#00b5b8" fill-opacity="1" transform="matrix(1,0,0,1,-1358,-212)"></path></svg>