<svg id="SvgjsSvg1000" xmlns="http://www.w3.org/2000/svg" version="1.1" xmlns:xlink="http://www.w3.org/1999/xlink" xmlns:svgjs="http://svgjs.com/svgjs" width="40" height="20" viewBox="0 0 40 20"><title>Group 6 Copy 4</title><desc>Created with Avocode.</desc><defs id="SvgjsDefs1001"><clipPath id="SvgjsClipPath1010"><path id="SvgjsPath1009" d="M875 449C875 447.89543 875.89543 447 877 447H913C914.10457 447 915 447.89543 915 449V465C915 466.10457 914.10457 467 913 467H877C875.89543 467 875 466.10457 875 465Z " fill="#ffffff"></path></clipPath><clipPath id="SvgjsClipPath1014"><path id="SvgjsPath1013" d="M889.87795 460.12681V453.87318999999997H898.1220500000001V460.12681ZM897.92 455.15C897.79 454.96999999999997 897.5699999999999 454.95 897.42 455.09L894 458.34999999999997L890.58 455.09C890.4300000000001 454.95 890.21 454.96999999999997 890.08 455.15C889.96 455.32 889.98 455.58 890.13 455.71999999999997L893.77 459.19C893.84 459.25 893.92 459.29 894 459.29C894.08 459.29 894.16 459.25 894.23 459.19L897.87 455.71999999999997C898.02 455.58 898.04 455.32 897.92 455.15Z " fill="#ffffff"></path></clipPath></defs><path id="SvgjsPath1007" d="M875 449C875 447.89543 875.89543 447 877 447H913C914.10457 447 915 447.89543 915 449V465C915 466.10457 914.10457 467 913 467H877C875.89543 467 875 466.10457 875 465Z " fill="#f8fafc" fill-opacity="1" transform="matrix(1,0,0,1,-875,-447)"></path><path id="SvgjsPath1008" d="M875 449C875 447.89543 875.89543 447 877 447H913C914.10457 447 915 447.89543 915 449V465C915 466.10457 914.10457 467 913 467H877C875.89543 467 875 466.10457 875 465Z " fill-opacity="0" fill="#ffffff" stroke-dashoffset="0" stroke-linejoin="miter" stroke-linecap="butt" stroke-opacity="1" stroke="#c1c7d7" stroke-miterlimit="50" stroke-width="2" clip-path="url(&quot;#SvgjsClipPath1010&quot;)" transform="matrix(1,0,0,1,-875,-447)"></path><path id="SvgjsPath1011" d="M897.92 455.15C897.79 454.96999999999997 897.5699999999999 454.95 897.42 455.09L894 458.34999999999997L890.58 455.09C890.4300000000001 454.95 890.21 454.96999999999997 890.08 455.15C889.96 455.32 889.98 455.58 890.13 455.71999999999997L893.77 459.19C893.84 459.25 893.92 459.29 894 459.29C894.08 459.29 894.16 459.25 894.23 459.19L897.87 455.71999999999997C898.02 455.58 898.04 455.32 897.92 455.15Z " fill="#7e8ba3" fill-opacity="1" transform="matrix(1,0,0,1,-875,-447)"></path><path id="SvgjsPath1012" d="M897.92 455.15C897.79 454.96999999999997 897.5699999999999 454.95 897.42 455.09L894 458.34999999999997L890.58 455.09C890.4300000000001 454.95 890.21 454.96999999999997 890.08 455.15C889.96 455.32 889.98 455.58 890.13 455.71999999999997L893.77 459.19C893.84 459.25 893.92 459.29 894 459.29C894.08 459.29 894.16 459.25 894.23 459.19L897.87 455.71999999999997C898.02 455.58 898.04 455.32 897.92 455.15Z " fill-opacity="0" fill="#ffffff" stroke-dashoffset="0" stroke-linejoin="miter" stroke-linecap="butt" stroke-opacity="1" stroke="#7e8ba3" stroke-miterlimit="50" stroke-width="0.4" clip-path="url(&quot;#SvgjsClipPath1014&quot;)" transform="matrix(1,0,0,1,-875,-447)"></path></svg>