<svg id="SvgjsSvg1015" xmlns="http://www.w3.org/2000/svg" version="1.1" xmlns:xlink="http://www.w3.org/1999/xlink" xmlns:svgjs="http://svgjs.com/svgjs" width="40" height="20" viewBox="0 0 40 20"><title>Group 6</title><desc>Created with Avocode.</desc><defs id="SvgjsDefs1016"><clipPath id="SvgjsClipPath1020"><path id="SvgjsPath1019" d="M287 449C287 447.89543 287.89543 447 289 447H325C326.10457 447 327 447.89543 327 449V465C327 466.10457 326.10457 467 325 467H289C287.89543 467 287 466.10457 287 465Z " fill="#ffffff"></path></clipPath><clipPath id="SvgjsClipPath1024"><path id="SvgjsPath1023" d="M301.87795 460.12681V453.87318999999997H310.12205V460.12681ZM309.92 455.15C309.79 454.96999999999997 309.57 454.95 309.42 455.09L306 458.34999999999997L302.58 455.09C302.43 454.95 302.21 454.96999999999997 302.08 455.15C301.96 455.32 301.97999999999996 455.58 302.13 455.71999999999997L305.77 459.19C305.84 459.25 305.91999999999996 459.29 306 459.29C306.08 459.29 306.16 459.25 306.23 459.19L309.87 455.71999999999997C310.02 455.58 310.04 455.32 309.92 455.15Z " fill="#ffffff"></path></clipPath></defs><path id="SvgjsPath1017" d="M287 449C287 447.89543 287.89543 447 289 447H325C326.10457 447 327 447.89543 327 449V465C327 466.10457 326.10457 467 325 467H289C287.89543 467 287 466.10457 287 465Z " fill="#f8fafc" fill-opacity="1" transform="matrix(1,0,0,1,-287,-447)"></path><path id="SvgjsPath1018" d="M287 449C287 447.89543 287.89543 447 289 447H325C326.10457 447 327 447.89543 327 449V465C327 466.10457 326.10457 467 325 467H289C287.89543 467 287 466.10457 287 465Z " fill-opacity="0" fill="#ffffff" stroke-dashoffset="0" stroke-linejoin="miter" stroke-linecap="butt" stroke-opacity="1" stroke="#c1c7d7" stroke-miterlimit="50" stroke-width="2" clip-path="url(&quot;#SvgjsClipPath1020&quot;)" transform="matrix(1,0,0,1,-287,-447)"></path><path id="SvgjsPath1021" d="M309.92 455.15C309.79 454.96999999999997 309.57 454.95 309.42 455.09L306 458.34999999999997L302.58 455.09C302.43 454.95 302.21 454.96999999999997 302.08 455.15C301.96 455.32 301.97999999999996 455.58 302.13 455.71999999999997L305.77 459.19C305.84 459.25 305.91999999999996 459.29 306 459.29C306.08 459.29 306.16 459.25 306.23 459.19L309.87 455.71999999999997C310.02 455.58 310.04 455.32 309.92 455.15Z " fill="#7e8ba3" fill-opacity="1" transform="matrix(1,0,0,1,-287,-447)"></path><path id="SvgjsPath1022" d="M309.92 455.15C309.79 454.96999999999997 309.57 454.95 309.42 455.09L306 458.34999999999997L302.58 455.09C302.43 454.95 302.21 454.96999999999997 302.08 455.15C301.96 455.32 301.97999999999996 455.58 302.13 455.71999999999997L305.77 459.19C305.84 459.25 305.91999999999996 459.29 306 459.29C306.08 459.29 306.16 459.25 306.23 459.19L309.87 455.71999999999997C310.02 455.58 310.04 455.32 309.92 455.15Z " fill-opacity="0" fill="#ffffff" stroke-dashoffset="0" stroke-linejoin="miter" stroke-linecap="butt" stroke-opacity="1" stroke="#7e8ba3" stroke-miterlimit="50" stroke-width="0.4" clip-path="url(&quot;#SvgjsClipPath1024&quot;)" transform="matrix(1,0,0,1,-287,-447)"></path></svg>