<svg id="SvgjsSvg1008" xmlns="http://www.w3.org/2000/svg" version="1.1" xmlns:xlink="http://www.w3.org/1999/xlink" xmlns:svgjs="http://svgjs.com/svgjs" width="15" height="12" viewBox="0 0 15 12"><title>Group</title><desc>Created with Avocode.</desc><defs id="SvgjsDefs1009"></defs><path id="SvgjsPath1010" d="M1078.04 501.11C1078.76 500.56 1079.62 500.26 1080.54 500.26C1082.81 500.26 1084.67 502.11 1084.67 504.39C1084.67 504.47999999999996 1084.67 504.58 1084.65 504.65999999999997L1084.45 504.45C1084.21 504.2 1083.8 504.2 1083.55 504.44C1083.3 504.67 1083.3 505.08 1083.54 505.33L1085.19 507.01L1087.01 505.36C1087.26 505.13 1087.29 504.74 1087.06 504.47C1086.82 504.22 1086.4299999999998 504.19000000000005 1086.1599999999999 504.42L1085.9099999999999 504.66C1085.9099999999999 504.56 1085.9099999999999 504.48 1085.9099999999999 504.39000000000004C1085.9099999999999 501.42 1083.4899999999998 499.00000000000006 1080.5199999999998 499.00000000000006C1079.3299999999997 499.00000000000006 1078.2099999999998 499.38000000000005 1077.2499999999998 500.1000000000001C1076.9699999999998 500.30000000000007 1076.9199999999998 500.7000000000001 1077.1299999999999 500.9800000000001C1077.36 501.26000000000005 1077.77 501.31000000000006 1078.04 501.11000000000007Z " fill="#babfc7" fill-opacity="1" transform="matrix(1,0,0,1,-1073,-499)"></path><path id="SvgjsPath1011" d="M1074.63 504.75C1074.7900000000002 504.75 1074.93 504.7 1075.0600000000002 504.59L1075.2900000000002 504.36999999999995C1075.2900000000002 504.46999999999997 1075.2800000000002 504.5799999999999 1075.2800000000002 504.66999999999996C1075.2800000000002 507.64 1077.7000000000003 510.05999999999995 1080.6700000000003 510.05999999999995C1081.8900000000003 510.05999999999995 1083.0400000000002 509.66999999999996 1084.0000000000002 508.90999999999997C1084.2600000000002 508.68999999999994 1084.3100000000002 508.29999999999995 1084.1100000000001 508.03C1083.89 507.77 1083.4900000000002 507.71999999999997 1083.23 507.91999999999996C1082.49 508.50999999999993 1081.6100000000001 508.79999999999995 1080.68 508.79999999999995C1078.4 508.79999999999995 1076.55 506.94999999999993 1076.55 504.66999999999996C1076.55 504.55999999999995 1076.55 504.44999999999993 1076.56 504.34L1076.78 504.56C1077.02 504.81 1077.43 504.81 1077.68 504.58C1077.93 504.34 1077.93 503.93 1077.7 503.68L1076.03 502L1074.21 503.65C1073.96 503.89 1073.92 504.28 1074.16 504.54999999999995C1074.2900000000002 504.68999999999994 1074.46 504.74999999999994 1074.63 504.74999999999994Z " fill="#babfc7" fill-opacity="1" transform="matrix(1,0,0,1,-1073,-499)"></path></svg>